<?xml version="1.0" standalone="no"?>
<!DOCTYPE svg PUBLIC "-//W3C//DTD SVG 20010904//EN"
 "http://www.w3.org/TR/2001/REC-SVG-20010904/DTD/svg10.dtd">
<svg version="1.0" xmlns="http://www.w3.org/2000/svg"
 width="192.000000pt" height="263.000000pt" viewBox="0 0 192.000000 263.000000"
 preserveAspectRatio="xMidYMid meet">

<g transform="translate(0.000000,263.000000) scale(0.100000,-0.100000)"
fill="#e5f0ff" stroke="none">
<path d="M770 2621 c-20 -6 -25 -13 -26 -41 l0 -35 -65 -11 c-167 -28 -251
-87 -235 -165 5 -24 1 -31 -24 -44 -22 -12 -35 -13 -49 -5 -59 31 -194 -11
-231 -72 -25 -41 -26 -105 -3 -130 16 -18 16 -21 -1 -46 -35 -54 -86 -171
-107 -248 -32 -111 -32 -272 -2 -369 52 -167 180 -288 370 -349 l53 -17 -34
-67 c-54 -108 -70 -168 -70 -257 0 -87 20 -148 65 -195 13 -13 33 -45 45 -71
29 -61 85 -116 150 -146 l53 -24 15 -69 c20 -89 20 -94 -6 -140 -18 -31 -21
-44 -13 -67 26 -73 200 -59 264 23 17 22 20 40 20 116 0 50 2 93 5 96 4 3 6
-36 6 -86 0 -50 5 -101 10 -114 16 -33 73 -67 133 -79 114 -23 176 35 125 117
l-25 39 21 92 21 93 65 42 c35 24 80 63 98 88 18 25 50 64 72 87 93 103 94
272 0 451 -24 46 -34 75 -27 77 141 39 285 120 353 198 53 61 101 169 115 256
26 171 -40 411 -151 551 -22 28 -26 40 -18 53 15 28 11 105 -7 133 -38 58
-139 82 -222 54 -24 -9 -39 -6 -84 13 -49 22 -122 45 -191 61 -20 5 -28 13
-28 29 0 32 -35 84 -72 107 -37 22 -113 26 -233 10 -38 -5 -71 -7 -74 -5 -2 2
-6 19 -10 36 -7 36 -14 40 -51 30z m259 -87 c61 -12 113 -90 96 -143 -9 -31
-67 -44 -154 -37 -214 18 -257 18 -339 2 -46 -9 -88 -14 -92 -11 -13 8 -22 62
-15 85 10 31 76 59 168 71 45 6 123 17 172 24 112 16 125 17 164 9z m278 -205
c236 -81 419 -258 492 -474 92 -276 12 -528 -204 -641 -160 -85 -310 -109
-670 -109 -224 0 -285 3 -355 18 -232 50 -393 162 -450 315 -33 87 -44 184
-31 282 28 216 127 392 286 505 85 61 154 90 253 105 83 13 121 11 282 -10 91
-12 193 -1 240 26 29 16 76 11 157 -17z m59 -1426 c25 -106 26 -278 1 -350
-23 -66 -86 -137 -149 -169 -99 -50 -285 -68 -419 -40 -206 44 -299 161 -299
376 0 76 22 225 35 238 2 2 61 -4 132 -13 162 -22 432 -16 563 13 125 28 114
32 136 -55z"/>
<path d="M520 1944 c-47 -42 -87 -121 -96 -185 -6 -41 -4 -48 17 -63 13 -9 38
-16 56 -16 44 0 131 71 161 131 20 40 21 52 13 90 -19 85 -84 104 -151 43z"/>
<path d="M1240 1965 c-7 -9 -15 -37 -17 -63 -4 -42 0 -53 37 -108 60 -90 84
-110 117 -98 40 14 68 59 67 108 -1 54 -48 142 -86 162 -36 19 -102 18 -118
-1z"/>
<path d="M865 1817 c-10 -8 -15 -19 -11 -25 9 -15 76 -15 113 -1 27 10 27 11
9 25 -25 18 -86 18 -111 1z"/>
<path d="M837 1662 c-19 -21 -21 -45 -7 -73 12 -21 59 -26 91 -9 14 8 25 6 44
-6 50 -33 149 12 143 65 -2 18 -10 27 -25 29 -25 4 -30 -7 -11 -26 9 -9 6 -17
-12 -37 -13 -14 -32 -25 -41 -25 -21 0 -39 28 -39 59 0 31 -27 25 -45 -10 -13
-24 -22 -30 -43 -27 -21 2 -28 9 -30 31 -3 24 0 27 27 27 16 0 33 5 36 10 12
19 -71 11 -88 -8z"/>
<path d="M877 853 c-4 -3 -7 -57 -7 -120 l0 -113 25 0 c23 0 25 4 25 40 0 52
20 53 57 0 21 -30 35 -40 56 -40 31 0 30 3 -11 58 -23 30 -24 34 -8 51 24 27
20 78 -9 106 -19 20 -34 25 -73 25 -27 0 -52 -3 -55 -7z m100 -61 c17 -21 -2
-52 -32 -52 -22 0 -25 5 -25 33 0 19 3 36 6 40 9 8 37 -3 51 -21z"/>
<path d="M852 574 c14 -14 25 -15 114 -1 l99 15 -115 1 c-105 1 -113 0 -98
-15z"/>
</g>
</svg>
